PathFileType	4	(X/Y/Z)	/Users/niels/Desktop/University/Third Semester/Perception and Action/Exam/Gymnastics Motion Tracking/Code for Gym Tracking/Scripts/Analyzed Data/kraft_bad_id5_1_nmspeed_Sports2D/kraft_bad_id5_1_nmspeed_Sports2D_px_person00.trc
DataRate	CameraRate	NumFrames	NumMarkers	Units	OrigDataRate	OrigDataStartFrame	OrigNumFrames
49.390243902439025	49.390243902439025	9	22	m	49.390243902439025	13	82
Frame#	Time	Hip			RHip			RKnee			RAnkle			RBigToe			RSmallToe			RHeel			LHip			LKnee			LAnkle			LBigToe			LSmallToe			LHeel			Neck			Head			Nose			RShoulder			RElbow			RWrist			LShoulder			LElbow			LWrist		
		X1	Y1	Z1	X2	Y2	Z2	X3	Y3	Z3	X4	Y4	Z4	X5	Y5	Z5	X6	Y6	Z6	X7	Y7	Z7	X8	Y8	Z8	X9	Y9	Z9	X10	Y10	Z10	X11	Y11	Z11	X12	Y12	Z12	X13	Y13	Z13	X14	Y14	Z14	X15	Y15	Z15	X16	Y16	Z16	X17	Y17	Z17	X18	Y18	Z18	X19	Y19	Z19	X20	Y20	Z20	X21	Y21	Z21	X22	Y22	Z22
13	0.2632098765432098	0.19711644123223607	-0.46942111053660296	0.0	0.16691472687939377	-0.4706268927385218	0.0	0.1844250736986256	-0.6452540236313217	0.0	0.1319675444625134	-0.7846982968293699	0.0	0.17737148429903726	-0.8270159897541542	0.0	0.15635531337161543	-0.8266729250290883	0.0	0.11292969997043499	-0.8006418877908985	0.0	0.22946295987873233	-0.4771442736048275	0.0	0.35234553860139467	-0.5784714364780358	0.0	0.3579675809456768	-0.7386625227301568	0.0	0.43113029681094867	-0.7656340729322393	0.0	0.4239925132205335	-0.7594616624447382	0.0	0.34433119391007033	-0.7622461939776102	0.0	0.2924845988862881	-0.2904346701579487	0.0	0.3776439793005485	-0.23642565176505176	0.0	0.37164564666439376	-0.27726980795457645	0.0	0.27733942712370907	-0.27689663432693096	0.0	0.3728644993518996	-0.264401574710032	0.0	0.4607154298320156	-0.20912302459744878	0.0	0.3168662694057383	-0.30447738444286687	0.0	0.4071844795463029	-0.28036319337923	0.0	0.4748183296657043	-0.22785684001471415	0.0
14	0.28345679012345676	0.22166023619746714	-0.47243394983774795	0.0	0.19171031972231717	-0.47346948955507845	0.0	0.21506434094430463	-0.6478002819065366	0.0	0.16590869950205395	-0.7936705608950054	0.0	0.2138910791119232	-0.8333868685949435	0.0	0.19200220238113538	-0.8344845602746732	0.0	0.1472590026410781	-0.8104152081339705	0.0	0.2541818527325426	-0.4797493344540754	0.0	0.37408823808535735	-0.5834760608146857	0.0	0.3896045933364195	-0.7434225270955581	0.0	0.46315599955600645	-0.7675450258233901	0.0	0.4556012201642959	-0.7617563266911419	0.0	0.3771155453916984	-0.76782709861136	0.0	0.32194262709088106	-0.29581899851483606	0.0	0.4109800099778164	-0.24378793060925955	0.0	0.4009430012483435	-0.2835017244731238	0.0	0.3081908329732754	-0.28120454421460994	0.0	0.40293685067514695	-0.2684765354403102	0.0	0.48857586868237224	-0.21282058832748973	0.0	0.3454309741669844	-0.3106747313546394	0.0	0.4345582786030245	-0.2865924490932602	0.0	0.5018351628277471	-0.23197646010882442	0.0
15	0.3037037037037037	0.24625803770306048	-0.47676838810712446	0.0	0.2164776462879791	-0.4775916649707567	0.0	0.2459218085709311	-0.6511622511741466	0.0	0.20105206378763923	-0.8026820586708898	0.0	0.25145758985652394	-0.8397634925253762	0.0	0.2289969523403593	-0.8421836371102475	0.0	0.18280552044257017	-0.8203548607698227	0.0	0.27887750183311943	-0.48377046855376116	0.0	0.3958981186176422	-0.5894962556463634	0.0	0.4198878497629178	-0.7488518379848496	0.0	0.4933432014306034	-0.7704418878675768	0.0	0.4856499832881769	-0.7650586718672099	0.0	0.40845091696674085	-0.773819297525815	0.0	0.35127848743956563	-0.30288019468524396	0.0	0.44354304759266355	-0.2525810280633206	0.0	0.429899456851245	-0.2912422936959243	0.0	0.3382941629908427	-0.28747862182809214	0.0	0.4325866763777078	-0.2746672900866537	0.0	0.5164063909882313	-0.21872353317102997	0.0	0.37401754626855616	-0.3186081409761813	0.0	0.461981640010688	-0.29476187507047624	0.0	0.5288999702833245	-0.2382296572493782	0.0
16	0.3239506172839506	0.27083326026180504	-0.4822810789003584	0.0	0.2411120064252735	-0.48283890996633794	0.0	0.2763647828042491	-0.6554512829199316	0.0	0.23578270659331899	-0.8116776917098907	0.0	0.2882963491671282	-0.8463243508224084	0.0	0.2655674758748915	-0.8498799376334072	0.0	0.21794101689726517	-0.8302537560725846	0.0	0.30352418547044313	-0.4890857590675443	0.0	0.41786539688541857	-0.596393727834201	0.0	0.4485905818382082	-0.7549291381899529	0.0	0.5214428974255892	-0.7744166189116108	0.0	0.5139026019554033	-0.7694122311982011	0.0	0.4380651414399067	-0.7802049797902486	0.0	0.3806154784047611	-0.3115663149532581	0.0	0.47523585866879314	-0.2628981769965501	0.0	0.4586287154313146	-0.3005231085976162	0.0	0.3679129183604266	-0.2956715677441996	0.0	0.4619942681169493	-0.28289270111487275	0.0	0.5445018405543716	-0.22686483089121448	0.0	0.40261733622497925	-0.328090151579098	0.0	0.4896062589794645	-0.3048469104279964	0.0	0.5563167236593647	-0.2468083215936952	0.0
17	0.34419753086419747	0.2953724882371084	-0.48875207618491345	0.0	0.2656296370148593	-0.48900174796290374	0.0	0.3058434463439781	-0.6606550670462503	0.0	0.26860272856394196	-0.8205794580701121	0.0	0.32281877190063313	-0.853195141741953	0.0	0.3000649089112443	-0.8576562451647436	0.0	0.25114065721526496	-0.8399194879635822	0.0	0.32813719554504356	-0.495501427151217	0.0	0.4400282212893436	-0.6040148956967106	0.0	0.4755029200760409	-0.7616152926189906	0.0	0.5472148704521519	-0.7795142987524467	0.0	0.5401067669152015	-0.7748414047076722	0.0	0.46567812044042517	-0.7869721669225057	0.0	0.41015289411416184	-0.32179085909220606	0.0	0.5061545130971297	-0.2748781522123559	0.0	0.4873455417370497	-0.3113922052601172	0.0	0.39755610514843154	-0.3057036611178393	0.0	0.49150689596904756	-0.29308552061336546	0.0	0.5732642496734969	-0.23732716124879283	0.0	0.43127226548715714	-0.338921403924407	0.0	0.5176406937343268	-0.3168301521470498	0.0	0.5844644484456731	-0.2579048696517542	0.0
18	0.3644444444444444	0.3198088084415546	-0.495861496121542	0.0	0.29003304025523136	-0.49576846470837077	0.0	0.3337361652348166	-0.6666187620278317	0.0	0.2981017896974856	-0.8292235096842236	0.0	0.3535552952668118	-0.8603513177712906	0.0	0.3309068232375194	-0.8654652471364055	0.0	0.28095048043387216	-0.84912086891589	0.0	0.3526487656701839	-0.5027207513114583	0.0	0.4622506392554819	-0.6121656079195271	0.0	0.5002810562463964	-0.7687956698508254	0.0	0.5702753572345672	-0.7856872111606175	0.0	0.563855769642059	-0.7812942279880899	0.0	0.49086658121861787	-0.7940439068913278	0.0	0.44000984519818426	-0.3334143649468206	0.0	0.5364475898001749	-0.28863975454382884	0.0	0.5162130174356753	-0.32384876264414975	0.0	0.4276980442066648	-0.31741851920801883	0.0	0.5214480521617827	-0.30516687697338973	0.0	0.6030126650112109	-0.25021148534881943	0.0	0.4599763684904349	-0.3508896739873807	0.0	0.5461915335521982	-0.330657757253729	0.0	0.6136277995256725	-0.27169061434842245	0.0
19	0.38469135802469134	0.34404180197679346	-0.5032017056319333	0.0	0.3143082317740723	-0.5027346793497205	0.0	0.3593903347398939	-0.6730449211865135	0.0	0.32314858633087423	-0.8373388857262479	0.0	0.3793269100926586	-0.8675792787000904	0.0	0.3567937182193125	-0.8730850351531908	0.0	0.30620153021708907	-0.8575601509870723	0.0	0.3769266077368211	-0.510358949308074	0.0	0.4842155388451914	-0.6206191050305262	0.0	0.5224517359658392	-0.7762479868681398	0.0	0.5900879401028737	-0.7927713282594173	0.0	0.5845973703342873	-0.788607640184528	0.0	0.5131045349568841	-0.8012335061830496	0.0	0.47025418683940884	-0.34626948095438187	0.0	0.5662856428773426	-0.30421297529370445	0.0	0.5453226483846385	-0.33779463065706333	0.0	0.45867376967417983	-0.3306044107910003	0.0	0.5520794199848319	-0.3190728160028487	0.0	0.633939515514976	-0.26567568262927765	0.0	0.4887257529209337	-0.3637859192463118	0.0	0.575239906886679	-0.34620842020605763	0.0	0.6439351796228695	-0.2883014077038623	0.0
20	0.4049382716049382	0.3680565671248206	-0.5103099586653765	0.0	0.3385245467820729	-0.5094431975700326	0.0	0.3823126563356068	-0.6794963500226511	0.0	0.3432236675945173	-0.8445535540881238	0.0	0.3995786826938458	-0.874491955214972	0.0	0.3771025162736976	-0.8801305619768736	0.0	0.32637188147346063	-0.8648735633523196	0.0	0.4008935878608229	-0.5179830831791301	0.0	0.5055062216000822	-0.6291371992450647	0.0	0.5415373209810537	-0.783658528194861	0.0	0.6061049372302185	-0.8004967637765782	0.0	0.6017680854791256	-0.7965113263553358	0.0	0.5319135148246338	-0.8082549611453631	0.0	0.501022153334779	-0.36021596584878013	0.0	0.5959418805972444	-0.3215457769338992	0.0	0.5747765072978089	-0.353078947447222	0.0	0.4907205433278308	-0.3450510662698465	0.0	0.5836409520732506	-0.3348038801658732	0.0	0.6661474187503112	-0.283970740273811	0.0	0.517625868378151	-0.37745605676413085	0.0	0.6047155195278991	-0.36333132334561224	0.0	0.675372687286048	-0.30781391238787925	0.0
21	0.4251851851851851	0.3919178908351238	-0.5166693014356627	0.0	0.36281523982506153	-0.5153927714705296	0.0	0.4022623172751164	-0.6853762509423009	0.0	0.3585216798807165	-0.8503662255474327	0.0	0.41447336796532913	-0.8805287460512052	0.0	0.3920098688788277	-0.8860505284299018	0.0	0.34169786607345176	-0.8705999218408264	0.0	0.4245184884610371	-0.525111554952788	0.0	0.5255957005556237	-0.6374452938706073	0.0	0.5570753605839502	-0.7906338926615869	0.0	0.6178252679957331	-0.8084906109771004	0.0	0.6148319337298678	-0.8046290426248779	0.0	0.5468842244529152	-0.8147346529036915	0.0	0.5324507307555344	-0.3751365886545601	0.0	0.6257369595662687	-0.34051417432139447	0.0	0.6046310756796611	-0.36954325141848	0.0	0.5239135099575902	-0.3605437823899716	0.0	0.6162426713736563	-0.35238797420144	0.0	0.6995375435334766	-0.3053553821447549	0.0	0.5468037654876198	-0.39178573191977356	0.0	0.634438097738814	-0.3818211618537958	0.0	0.7076686974264096	-0.33013673647852376	0.0
